<?xml version="1.0" encoding="UTF-8" standalone="no"?>
<svg
   xmlns:dc="http://purl.org/dc/elements/1.1/"
   xmlns:cc="http://creativecommons.org/ns#"
   xmlns:rdf="http://www.w3.org/1999/02/22-rdf-syntax-ns#"
   xmlns:svg="http://www.w3.org/2000/svg"
   xmlns="http://www.w3.org/2000/svg"
   xmlns:sodipodi="http://sodipodi.sourceforge.net/DTD/sodipodi-0.dtd"
   xmlns:inkscape="http://www.inkscape.org/namespaces/inkscape"
   width="64"
   height="64"
   viewBox="0 0 64 64"
   version="1.1"
   id="svg10"
   sodipodi:docname="refresh-rpi.svg"
   inkscape:version="0.92.4 (5da689c313, 2019-01-14)">
  <metadata
     id="metadata16">
    <rdf:RDF>
      <cc:Work
         rdf:about="">
        <dc:format>image/svg+xml</dc:format>
        <dc:type
           rdf:resource="http://purl.org/dc/dcmitype/StillImage" />
        <dc:title>folder</dc:title>
      </cc:Work>
    </rdf:RDF>
  </metadata>
  <defs
     id="defs14" />
  <sodipodi:namedview
     pagecolor="#bfbfbf"
     bordercolor="#666666"
     borderopacity="1"
     objecttolerance="10"
     gridtolerance="10"
     guidetolerance="10"
     inkscape:pageopacity="0"
     inkscape:pageshadow="2"
     inkscape:window-width="1920"
     inkscape:window-height="1017"
     id="namedview12"
     showgrid="false"
     inkscape:pagecheckerboard="false"
     inkscape:zoom="7.6562596"
     inkscape:cx="29.182122"
     inkscape:cy="23.578711"
     inkscape:window-x="-8"
     inkscape:window-y="-8"
     inkscape:window-maximized="1"
     inkscape:current-layer="svg10"
     inkscape:snap-bbox="true"
     inkscape:snap-bbox-edge-midpoints="true"
     inkscape:document-rotation="0"
     inkscape:snap-bbox-midpoints="true"
     inkscape:snap-intersection-paths="true"
     inkscape:snap-midpoints="true"
     inkscape:snap-smooth-nodes="true"
     inkscape:snap-object-midpoints="true"
     inkscape:snap-center="true"
     inkscape:bbox-nodes="true"
     inkscape:bbox-paths="true" />
  <!-- Generator: Sketch 52.5 (67469) - http://www.bohemiancoding.com/sketch -->
  <title
     id="title2">folder</title>
  <desc
     id="desc4">Created with Sketch.</desc>
  <path
     sodipodi:nodetypes="ccc"
     inkscape:connector-curvature="0"
     id="path4710-2-1"
     d="m 2.3405551,31.365635 5.187416,7.118657 5.0236309,-7.118657 z"
     style="display:inline;fill:#ffffff;fill-opacity:1;fill-rule:evenodd;stroke:#ffffff;stroke-width:2.73127007;stroke-linecap:butt;stroke-linejoin:round;stroke-miterlimit:4;stroke-dasharray:none;stroke-opacity:1" />
  <path
     style="fill:none;stroke:#ffffff;stroke-width:4;stroke-linejoin:round;stroke-miterlimit:4;stroke-dasharray:none"
     id="path853"
     sodipodi:type="arc"
     sodipodi:cx="31.000221"
     sodipodi:cy="32"
     sodipodi:rx="23.5"
     sodipodi:ry="23.5"
     sodipodi:start="3.1415927"
     sodipodi:end="5.4977871"
     sodipodi:arc-type="arc"
     sodipodi:open="true"
     d="M 7.5002213,31.999999 A 23.5,23.5 0 0 1 22.007161,10.288831 23.5,23.5 0 0 1 47.61723,15.38299" />
  <path
     sodipodi:nodetypes="ccc"
     inkscape:connector-curvature="0"
     id="path866"
     d="M 59.659666,32.634365 54.47225,25.515708 49.448619,32.634365 Z"
     style="display:inline;fill:#ffffff;fill-opacity:1;fill-rule:evenodd;stroke:#ffffff;stroke-width:2.73127;stroke-linecap:butt;stroke-linejoin:round;stroke-miterlimit:4;stroke-dasharray:none;stroke-opacity:1" />
  <path
     style="fill:none;stroke:#ffffff;stroke-width:4;stroke-linejoin:round;stroke-miterlimit:4;stroke-dasharray:none;stop-color:#000000"
     id="path868"
     sodipodi:type="arc"
     sodipodi:cx="-31.000221"
     sodipodi:cy="-32"
     sodipodi:rx="23.5"
     sodipodi:ry="23.5"
     sodipodi:start="3.1415927"
     sodipodi:end="5.4977871"
     sodipodi:arc-type="arc"
     sodipodi:open="true"
     d="m -54.500221,-32 a 23.5,23.5 0 0 1 14.506939,-21.711169 23.5,23.5 0 0 1 25.610069,5.094159"
     transform="scale(-1)" />
  <path
     inkscape:connector-curvature="0"
     d="m 24.84222,14.852555 c -0.173419,0.0052 -0.360196,0.06945 -0.571998,0.236594 -0.518794,-0.200115 -1.021922,-0.269645 -1.471948,0.137749 -0.694488,-0.0901 -0.920492,0.09587 -1.09158,0.312956 -0.152512,-0.0032 -1.14132,-0.156785 -1.594715,0.519594 -1.139549,-0.13481 -1.499641,0.670252 -1.091608,1.421022 -0.232737,0.360278 -0.473869,0.716224 0.07037,1.403054 -0.192532,0.382538 -0.0732,0.797524 0.380349,1.299738 -0.119709,0.537742 0.115584,0.917167 0.537554,1.212879 -0.07891,0.735876 0.674828,1.163769 0.899927,1.316211 0.08642,0.428788 0.266554,0.833394 1.127507,1.057156 0.142024,0.63902 0.65945,0.749364 1.160494,0.883457 -1.656067,0.962625 -3.07625,2.229206 -3.066639,5.3367 L 19.887369,30.4224 c -1.898983,1.154898 -3.607427,4.866702 -0.935879,7.88376 0.17451,0.944358 0.467159,1.622645 0.727726,2.373358 0.389753,3.025007 2.933326,4.441447 3.604223,4.608981 0.983078,0.748836 2.030124,1.459368 3.446974,1.957069 1.335692,1.377573 2.782704,1.902592 4.237628,1.901682 0.02128,-1.5e-5 0.04306,0.0014 0.06436,0 1.454923,0.0031 2.901934,-0.524109 4.237621,-1.901682 1.416853,-0.497701 2.463907,-1.208233 3.446977,-1.957069 0.670899,-0.167534 3.214474,-1.583974 3.604227,-4.608981 0.260569,-0.750713 0.553222,-1.429 0.727736,-2.373358 2.67153,-3.017058 0.963097,-6.728862 -0.935876,-7.88376 l -0.242573,-0.432735 c 0.0095,-3.107494 -1.410552,-4.374075 -3.06663,-5.3367 0.50104,-0.134093 1.018455,-0.244437 1.16045,-0.883457 0.860993,-0.223762 1.041114,-0.628368 1.127546,-1.057156 0.225096,-0.152442 0.978853,-0.580335 0.899923,-1.316211 0.421978,-0.295712 0.657264,-0.675137 0.537574,-1.212879 0.453516,-0.502214 0.572855,-0.9172 0.380329,-1.299738 0.544244,-0.68683 0.303111,-1.042776 0.07036,-1.403054 0.408051,-0.75077 0.04797,-1.555832 -1.09158,-1.421022 -0.453413,-0.676379 -1.442227,-0.522742 -1.594727,-0.519594 -0.171102,-0.217076 -0.397097,-0.403071 -1.091591,-0.312956 -0.450024,-0.407394 -0.953151,-0.337864 -1.471932,-0.137749 -0.616169,-0.486236 -1.02408,-0.09647 -1.489906,0.05087 -0.746244,-0.243782 -0.916783,0.09012 -1.283253,0.226113 -0.813415,-0.171926 -1.060667,0.202369 -1.450973,0.597463 l -0.45372,-0.0089 c -1.227163,0.723174 -1.836811,2.19576 -2.052913,2.952823 -0.216196,-0.757175 -0.824473,-2.229773 -2.051422,-2.952849 l -0.453717,0.0089 C 28.104015,15.568482 27.856763,15.19419 27.043358,15.366114 26.67688,15.230134 26.506348,14.89622 25.760105,15.140002 25.454416,15.043292 25.173282,14.842239 24.842203,14.85251 Z"
     style="fill:#000000;stroke-width:0.04791646"
     id="path2" />
  <path
     inkscape:connector-curvature="0"
     d="m 22.399283,18.034167 c 3.255812,1.678583 5.148479,3.03642 6.185412,4.192907 -0.531041,2.128339 -3.301279,2.225462 -4.314204,2.165758 0.2074,-0.09653 0.38046,-0.212163 0.441832,-0.389846 -0.254155,-0.180623 -1.155416,-0.01895 -1.784604,-0.372502 0.241696,-0.05005 0.354762,-0.09885 0.467821,-0.277212 -0.594443,-0.189593 -1.234746,-0.352974 -1.611326,-0.66705 0.203236,0.0032 0.392966,0.04542 0.658388,-0.138615 -0.532443,-0.286932 -1.100592,-0.514312 -1.542016,-0.952925 0.275292,-0.0068 0.572102,-0.0032 0.658383,-0.103958 -0.487318,-0.301912 -0.89849,-0.637674 -1.238809,-1.004921 0.385248,0.04651 0.547931,0.0066 0.641064,-0.06062 -0.368372,-0.377304 -0.8346,-0.695904 -1.056892,-1.160846 0.286048,0.09858 0.547751,0.136331 0.736365,-0.0084 -0.125177,-0.282393 -0.66151,-0.448968 -0.970265,-1.108879 0.301117,0.02919 0.62049,0.06575 0.68437,0 -0.140003,-0.569656 -0.379851,-0.889807 -0.615051,-1.221478 0.644457,-0.0094 1.620876,0.0032 1.576668,-0.05197 l -0.398501,-0.407196 c 0.629483,-0.1695 1.273637,0.0272 1.741251,0.173266 0.209976,-0.165683 -0.0038,-0.375194 -0.259886,-0.589097 0.534988,0.07141 1.018422,0.194412 1.45538,0.363858 0.233482,-0.210819 -0.151596,-0.421618 -0.337837,-0.632411 0.826513,0.156806 1.176686,0.377142 1.524681,0.597753 0.252486,-0.242016 0.0145,-0.447688 -0.155924,-0.658394 0.623178,0.230828 0.944182,0.528783 1.282129,0.822999 0.11456,-0.154644 0.291093,-0.267982 0.07798,-0.64107 0.442467,0.255044 0.775733,0.555584 1.022233,0.892289 0.273771,-0.174314 0.163123,-0.412703 0.16461,-0.632412 0.459831,0.374072 0.75165,0.772139 1.10886,1.160849 0.07196,-0.05239 0.134964,-0.230083 0.190591,-0.511107 1.09707,1.064306 2.64717,3.745074 0.398492,4.807977 -1.912749,-1.578716 -4.198251,-2.725859 -6.731171,-3.586505 z"
     style="fill:#75a928;stroke-width:0.04791646"
     id="path4" />
  <path
     inkscape:connector-curvature="0"
     d="m 39.674751,18.034167 c -3.255817,1.678583 -5.148497,3.03642 -6.185393,4.192907 0.531023,2.128339 3.301263,2.225462 4.31418,2.165758 -0.207403,-0.09653 -0.380448,-0.212163 -0.441807,-0.389846 0.254166,-0.180623 1.155385,-0.01898 1.784574,-0.372502 -0.241693,-0.05004 -0.354749,-0.09885 -0.467808,-0.277212 0.594433,-0.189593 1.234743,-0.352974 1.611327,-0.66705 -0.203216,0.0032 -0.392971,0.04542 -0.658383,-0.138615 0.532424,-0.286932 1.100601,-0.514312 1.54201,-0.952925 -0.275282,-0.0068 -0.572096,-0.0032 -0.658383,-0.103958 0.487313,-0.301912 0.898482,-0.637674 1.238817,-1.004921 -0.38525,0.04651 -0.547939,0.0066 -0.64106,-0.06062 0.368364,-0.377304 0.83457,-0.695904 1.056869,-1.160846 -0.286039,0.09858 -0.547732,0.136331 -0.736349,-0.0084 0.125173,-0.282393 0.661508,-0.448968 0.970255,-1.108879 -0.301122,0.02919 -0.620491,0.06575 -0.684372,0 0.140032,-0.569656 0.379861,-0.889807 0.615073,-1.221478 -0.644475,-0.0094 -1.620919,0.0032 -1.576673,-0.05197 l 0.398501,-0.407173 c -0.629509,-0.169492 -1.273646,0.02722 -1.74127,0.173271 -0.209961,-0.16569 0.0035,-0.375196 0.259892,-0.589099 -0.534995,0.07141 -1.018401,0.19441 -1.455386,0.363853 -0.233471,-0.210814 0.151602,-0.421614 0.337841,-0.632409 -0.826514,0.156814 -1.176671,0.377149 -1.524675,0.597757 -0.252485,-0.242014 -0.01453,-0.447683 0.155931,-0.658388 -0.623188,0.230831 -0.944172,0.528785 -1.282133,0.823001 -0.114573,-0.15464 -0.291072,-0.267982 -0.07798,-0.641067 -0.442478,0.255044 -0.775755,0.555582 -1.022242,0.892285 -0.27376,-0.174309 -0.163081,-0.412698 -0.164595,-0.632402 -0.459839,0.374068 -0.751662,0.772129 -1.108858,1.160852 -0.07197,-0.05238 -0.134962,-0.230085 -0.190581,-0.511111 -1.097078,1.064303 -2.647201,3.745076 -0.39851,4.807972 1.912773,-1.578705 4.198264,-2.725856 6.731167,-3.586495 z"
     style="fill:#75a928;stroke-width:0.04791646"
     id="path6" />
  <path
     inkscape:connector-curvature="0"
     d="m 34.979975,39.707051 a 3.8999355,3.5962239 0 1 1 -7.799871,0 3.8999355,3.596223 0 1 1 7.799871,0 z"
     style="fill:#bc1142;stroke-width:0.05412542"
     id="path8" />
  <path
     inkscape:connector-curvature="0"
     d="m 28.823081,29.433825 a 3.4978487,4.127036 34.034226 1 1 -4.550534,6.88619 3.4978487,4.127036 34.034226 1 1 4.550534,-6.88619 z"
     style="fill:#bc1142;stroke-width:0.09107826"
     id="path10" />
  <path
     inkscape:connector-curvature="0"
     d="m 33.185011,29.24216 a 4.1270366,3.4978507 55.965774 1 0 4.55054,6.886188 4.1270366,3.4978507 55.965774 1 0 -4.55054,-6.886188 z"
     style="fill:#bc1142;stroke-width:0.09107826"
     id="path12" />
  <path
     inkscape:connector-curvature="0"
     d="m 20.747026,31.164835 c 1.744867,-0.467527 0.588999,7.217961 -0.830529,6.587332 -1.561438,-1.255994 -2.064381,-4.9342 0.830529,-6.587332 z"
     style="fill:#bc1142;stroke-width:0.04791646"
     id="path14" />
  <path
     inkscape:connector-curvature="0"
     d="m 40.90876,31.069 c -1.744845,-0.46752 -0.588964,7.217962 0.830553,6.587337 1.561443,-1.256014 2.064393,-4.934205 -0.830553,-6.587337 z"
     style="fill:#bc1142;stroke-width:0.04791646"
     id="path16" />
  <path
     inkscape:connector-curvature="0"
     d="m 34.981176,25.346119 c 3.010831,-0.508391 5.515945,1.280439 5.415105,4.545269 -0.09903,1.251624 -6.524245,-4.358923 -5.415105,-4.545269 z"
     style="fill:#bc1142;stroke-width:0.04791646"
     id="path18" />
  <path
     inkscape:connector-curvature="0"
     d="m 26.662313,25.250286 c -3.010822,-0.5084 -5.515942,1.280445 -5.415107,4.545255 0.09904,1.251642 6.524248,-4.35892 5.415107,-4.545255 z"
     style="fill:#bc1142;stroke-width:0.04791646"
     id="path20" />
  <path
     inkscape:connector-curvature="0"
     d="m 30.987227,24.488531 c -1.796984,-0.04677 -3.52164,1.333718 -3.525761,2.134406 -0.0051,0.972901 1.420785,1.969011 3.538021,1.994282 2.162131,0.01549 3.541778,-0.797339 3.548736,-1.801357 0.008,-1.137547 -1.966408,-2.344906 -3.560996,-2.327331 z"
     style="fill:#bc1142;stroke-width:0.04791646"
     id="path22" />
  <path
     inkscape:connector-curvature="0"
     d="m 31.096945,44.439067 c 1.566765,-0.06842 3.669028,0.504651 3.67314,1.264811 0.02599,0.738156 -1.906571,2.405905 -3.777078,2.373661 -1.937115,0.08356 -3.83663,-1.586776 -3.81173,-2.165753 -0.029,-0.848871 2.358728,-1.51166 3.915668,-1.472719 z"
     style="fill:#bc1142;stroke-width:0.04791646"
     id="path24" />
  <path
     inkscape:connector-curvature="0"
     d="m 25.310058,39.934299 c 1.115464,1.34386 1.623934,3.70485 0.693046,4.400817 -0.880658,0.53129 -3.019327,0.312495 -4.539423,-1.871218 -1.025189,-1.832397 -0.893053,-3.697071 -0.173264,-4.244878 1.076406,-0.655698 2.739564,0.229961 4.019641,1.715279 z"
     style="fill:#bc1142;stroke-width:0.04791646"
     id="path26" />
  <path
     inkscape:connector-curvature="0"
     d="m 36.660611,39.508239 c -1.206867,1.413608 -1.878925,3.991894 -0.998458,4.822436 0.841801,0.645132 3.101583,0.554938 4.770832,-1.761206 1.212083,-1.55558 0.80594,-4.153503 0.113586,-4.843158 -1.02848,-0.795511 -2.50492,0.222579 -3.88596,1.781928 z"
     style="fill:#bc1142;stroke-width:0.04791646"
     id="path28" />
</svg>
